<svg width="626" height="270" viewBox="0 0 626 270" fill="none" xmlns="http://www.w3.org/2000/svg">
    <path d="M166.355 192.321C175.695 195.674 184.077 198.308 191.98 199.985C190.782 195.434 190.303 190.884 190.782 186.095C191.022 184.179 191.261 182.023 191.74 180.108C174.498 174.36 163.242 157.596 164.679 139.396C166.116 119.04 183.119 103.234 202.996 102.755C191.022 97.4865 166.595 92.4574 143.365 123.351C125.644 146.82 117.262 156.399 108.401 161.189C109.119 161.189 110.077 161.428 110.796 161.428C124.446 162.625 145.042 164.541 160.608 158.075C161.805 157.596 163.242 158.075 163.721 159.273C164.2 160.47 163.721 161.907 162.524 162.386C146 169.331 124.686 167.415 110.556 165.978C109.359 165.978 108.161 165.739 106.964 165.739C77.2682 163.104 54.5177 180.826 43.9805 191.124C74.1551 180.587 117.262 174.121 166.355 192.321Z" fill="#F6F3EE" fill-opacity="0.63"/>
    <path d="M574.193 107.305C569.404 106.826 564.374 107.305 559.585 108.024C564.135 120.956 562.937 135.804 554.795 148.017C547.85 158.554 536.116 164.541 524.142 164.541C517.197 164.541 510.252 162.625 504.025 158.554C497.32 154.244 492.769 147.538 491.332 139.635C489.656 131.972 491.333 123.83 495.643 117.364C503.067 106.108 518.154 102.995 529.171 110.419C538.271 116.406 540.905 128.859 534.918 137.959C532.523 141.551 528.931 144.185 524.62 144.904C520.31 145.862 515.999 144.904 512.407 142.509C506.18 138.438 504.504 130.056 508.575 123.59C509.294 122.393 510.731 122.153 511.928 122.872C513.125 123.59 513.365 125.027 512.646 126.224C510.012 130.295 511.209 135.804 515.041 138.438C517.675 140.114 520.789 140.833 523.662 140.114C526.776 139.396 529.171 137.719 531.087 135.085C535.637 128.14 533.721 118.8 526.776 114.25C517.915 108.263 505.702 110.898 499.954 119.758C492.53 131.253 495.643 146.58 507.138 154.244C521.747 163.823 541.384 159.752 550.963 145.143C559.345 132.211 559.585 116.166 552.64 103.474C549.048 98.4444 544.976 93.8943 540.426 90.0626C540.187 89.8232 539.708 89.5836 539.468 89.3442C539.229 89.1047 538.989 88.8652 538.75 88.3862C525.578 77.3701 509.294 70.4251 491.572 69.2277C482.711 68.5093 473.851 69.2277 465.229 71.383L462.595 72.1015L462.355 69.2277C459.96 41.4479 437.928 19.655 409.909 17.4997C393.145 16.3023 376.621 22.2894 364.886 34.5029L362.97 36.4187L361.294 34.0239C346.925 14.3864 324.893 2.17293 300.705 0.257081C255.204 -3.33514 215.21 31.1502 211.618 76.6517C210.9 85.9914 211.858 95.5707 214.252 104.671C218.324 98.9234 224.55 93.1759 234.13 88.8652C235.327 88.3863 236.764 88.8652 237.243 90.0626C237.722 91.26 237.243 92.6969 236.045 93.1759C208.026 106.347 211.858 129.577 212.097 130.774C212.337 131.972 211.379 133.409 210.181 133.648C209.942 133.648 209.942 133.648 209.702 133.648C208.505 133.648 207.547 132.93 207.307 131.732C207.307 131.493 205.392 119.998 212.336 108.024L211.379 107.784C209.702 107.545 208.265 107.305 206.829 107.066C187.67 105.629 170.906 119.998 169.47 139.156C168.272 155.92 179.049 171.247 195.333 175.557L197.728 176.276L197.01 178.671C196.291 181.066 195.812 183.7 195.573 186.095C195.094 190.884 195.812 195.913 197.249 200.703C238.919 207.887 259.275 190.645 269.094 172.205C263.825 168.852 261.67 165.739 261.43 165.499C254.246 157.357 250.414 146.58 251.133 135.564C252.809 113.532 271.968 97.0075 294 98.6839C300.705 83.1176 316.751 73.5384 333.754 74.7358C355.786 76.4121 372.31 95.8101 370.634 117.842C370.634 119.279 370.394 120.956 369.915 122.393C390.99 125.027 406.317 143.946 404.64 165.26C402.964 187.292 383.566 203.816 361.534 202.14C360.097 202.14 358.42 201.9 356.983 201.422C351.236 217.227 340.938 234.23 322.738 245.486C336.628 259.137 355.068 267.518 374.466 268.955C404.64 271.35 433.139 257.221 449.902 232.075C437.449 225.13 431.462 209.564 436.731 195.913C441.52 183.46 455.41 176.994 467.863 181.784C472.893 183.7 476.724 187.292 478.88 192.082C481.035 196.871 481.274 202.379 479.358 207.169C476.245 215.551 466.666 219.862 458.284 216.748C451.339 214.114 447.747 206.211 450.381 199.266C450.86 198.069 452.297 197.35 453.495 197.829C454.692 198.308 455.41 199.745 454.931 200.943C453.255 205.493 455.65 210.522 459.96 212.198C465.947 214.354 472.653 211.48 474.808 205.493C476.245 201.661 476.006 197.59 474.329 193.998C472.653 190.405 469.779 187.532 465.947 186.095C455.889 182.263 444.634 187.532 441.041 197.35C436.491 209.564 442.239 223.454 453.973 228.722C461.637 231.836 469.779 233.512 478.161 234.23C500.672 235.907 522.465 228.722 539.229 213.635L540.426 212.438L541.863 213.156C549.048 216.988 556.711 219.143 564.614 219.862C595.986 222.256 623.287 198.787 625.682 167.415C629.035 137.001 605.565 109.461 574.193 107.305Z" fill="#F6F3EE" fill-opacity="0.63"/>
    <path d="M262.388 254.347C318.906 257.46 342.615 227.765 352.673 200.943C346.926 199.745 341.657 197.59 336.867 194.237C331.838 204.535 311.243 239.26 260.712 239.26C258.317 239.26 255.923 239.26 253.528 239.02C252.091 239.02 251.133 237.823 251.372 236.386C251.372 234.949 252.57 233.991 254.007 234.231C309.087 237.823 329.683 199.266 333.275 191.124C331.838 189.926 330.641 188.49 329.443 187.053C322.259 178.671 318.906 168.134 319.864 157.118C320.582 148.257 324.654 140.114 331.599 134.367C338.304 128.619 346.925 125.745 356.026 126.464C363.21 126.943 369.916 130.535 374.466 136.043C379.016 141.551 381.411 148.736 380.932 155.92C380.453 161.907 377.579 167.176 373.269 171.007C368.718 174.839 362.971 176.755 356.984 176.276C346.925 175.558 339.502 166.697 340.22 156.639C340.459 152.567 342.375 148.975 345.489 146.341C348.602 143.707 352.434 142.509 356.505 142.749C357.942 142.749 358.9 143.946 358.66 145.383C358.66 146.82 357.463 147.778 356.026 147.538C353.391 147.299 350.518 148.257 348.602 149.933C346.447 151.609 345.249 154.244 345.01 156.878C344.291 164.302 350.039 170.768 357.223 171.486C361.773 171.965 366.324 170.528 369.916 167.415C373.508 164.302 375.663 160.231 375.903 155.441C376.382 149.454 374.466 143.707 370.634 139.156C366.803 134.606 361.294 131.732 355.307 131.253C347.644 130.535 340.22 132.93 334.472 137.959C328.725 142.988 325.133 149.694 324.414 157.357C322.738 176.755 336.628 193.758 355.547 196.392C355.786 196.392 356.265 196.392 356.744 196.392C358.66 196.871 360.815 197.111 362.731 197.35C382.129 198.787 399.133 184.179 400.569 164.781C402.006 145.383 387.398 128.38 368 126.943H367.281C366.563 126.943 365.844 126.464 365.366 125.985C364.887 125.506 364.887 124.548 364.887 123.83C365.366 121.674 365.845 119.519 366.084 117.364C367.521 97.9656 352.913 80.9623 333.515 79.5254C317.948 78.328 303.34 87.6679 297.832 102.037C297.353 102.995 296.395 103.713 295.198 103.474C294.719 103.474 294.239 103.474 293.76 103.234C274.363 101.797 257.359 116.406 255.923 135.804C254.965 149.215 261.67 162.386 273.405 169.092C273.644 169.092 273.644 169.331 273.884 169.571C279.871 172.923 289.211 176.276 303.579 176.994C305.016 176.994 305.974 178.192 305.974 179.629C305.974 180.826 304.777 182.024 303.579 182.024C303.579 182.024 303.579 182.024 303.34 182.024C298.79 181.784 294.958 181.305 291.126 180.587C273.884 213.635 243.709 220.82 221.198 220.82C204.674 220.82 192.22 216.988 191.981 216.988C190.783 216.509 190.065 215.311 190.305 213.875C190.544 212.438 191.981 211.959 193.418 212.198C193.657 212.198 210.421 217.467 230.298 215.551C255.922 213.156 274.602 201.182 286.337 179.389C281.068 177.952 276.518 176.276 273.165 174.6C265.262 189.208 248.738 207.169 215.211 207.169C209.224 207.169 202.518 206.69 195.334 205.253C195.094 205.253 194.855 205.253 194.615 205.014C185.515 203.337 175.696 200.703 164.68 196.632C110.557 176.516 64.0979 187.292 34.6416 199.745C20.5122 205.732 8.77758 212.677 0.15625 218.664C27.6966 206.69 51.166 202.14 72.4798 202.14C106.965 202.14 135.463 214.354 164.92 226.807C194.136 239.499 224.311 252.192 262.388 254.347Z" fill="#F6F3EE" fill-opacity="0.63"/>
</svg>
