<svg width="575" height="227" viewBox="0 0 575 227" fill="none" xmlns="http://www.w3.org/2000/svg">
    <path d="M557.59 120.612C556.529 119.764 556.529 118.281 557.166 117.009C560.774 111.498 562.684 105.35 562.684 98.7792C562.684 80.3376 547.614 65.4995 529.36 65.4995C528.299 65.4995 527.026 65.4996 525.752 65.7115C524.903 65.7115 524.054 65.4995 523.417 64.8636C522.781 64.2277 522.568 63.3798 522.568 62.5319C522.78 60.8362 522.781 59.1403 522.781 57.6565C522.781 25.8606 496.886 0 465.048 0C444.883 0 425.781 10.8106 415.38 28.1923C414.956 28.8283 414.319 29.2522 413.682 29.4641C413.046 29.6761 412.196 29.4641 411.56 29.0402C388.636 14.414 358.921 6.14713 328.356 6.14713C269.562 6.14713 218.409 35.8233 205.674 77.158C220.532 80.7615 232.418 93.48 233.479 109.166C234.752 125.064 222.866 139.054 206.947 140.326C206.31 140.326 205.674 140.326 205.037 140.326C192.726 140.326 182.326 130.999 181.477 118.493C180.628 107.682 188.693 98.3553 199.518 97.5074C208.433 96.8715 216.286 103.443 216.923 112.346C217.56 119.765 212.041 126.336 204.612 126.972C201.641 127.184 198.669 126.336 196.335 124.216C194 122.308 192.514 119.553 192.302 116.373C192.089 114.889 193.363 113.405 194.849 113.405C196.335 113.193 197.82 114.465 197.82 115.949C198.032 117.433 198.669 118.917 199.731 119.976C201.004 121.036 202.49 121.46 203.976 121.248C208.221 120.824 211.617 117.009 211.192 112.769C210.768 107.046 205.674 102.595 199.731 103.019C192.089 103.655 186.359 110.438 186.995 118.069C187.844 128.031 196.547 135.451 206.523 134.603C219.47 133.543 229.022 122.308 227.96 109.378C226.687 94.5398 213.527 82.4574 198.457 81.6095C197.82 81.6095 197.396 81.6095 196.759 81.6095C167.256 81.6095 143.483 105.562 143.483 134.815C143.483 139.69 144.12 144.777 145.606 149.441C166.831 150.077 193.787 152.832 222.017 160.675C226.899 161.947 231.569 163.007 236.026 163.643C244.304 164.067 250.671 161.735 254.916 157.072C263.831 147.321 261.284 129.727 261.284 129.727C261.072 128.243 262.133 126.76 263.619 126.548C265.105 126.336 266.59 127.396 266.803 128.879C267.015 129.727 269.562 149.229 258.949 160.887C257.676 162.371 255.978 163.643 254.492 164.703C272.958 163.643 285.056 156.224 291 147.745C296.943 139.266 297.155 129.303 291.636 121.884C290.787 120.612 291 118.917 292.273 117.857C293.547 117.009 295.245 117.221 296.306 118.493C303.098 127.819 302.886 140.538 295.669 150.924C288.453 161.523 273.17 170.426 250.247 170.426C245.577 170.426 240.696 170.002 235.389 169.154H235.177C230.507 168.518 225.838 167.458 220.744 165.975C166.195 150.925 116.527 154.952 105.49 156.012C63.676 161.735 28.442 182.508 0 217.908C15.4945 208.793 43.0874 196.499 80.0195 196.499C94.8772 196.499 111.221 198.406 128.838 203.494C245.365 235.926 311.376 234.866 330.903 199.89C331.328 199.254 331.964 198.618 332.601 198.618C333.45 198.406 334.087 198.618 334.724 199.042C352.129 210.489 373.142 216.424 395.428 216.424C412.621 216.424 429.177 212.82 443.822 206.037C447.855 203.706 451.676 200.738 455.284 197.77C469.929 184.84 478.42 167.458 479.269 149.017C479.905 134.391 474.811 120.188 464.835 109.378C454.859 98.5672 441.275 92.208 426.63 91.5721C402.645 90.5122 382.269 109.166 381.207 133.119C380.783 142.234 383.967 150.924 390.122 157.708C396.278 164.491 404.768 168.518 413.894 168.73C421.111 168.942 427.903 166.611 433.209 161.735C438.516 156.86 441.7 150.289 441.912 143.082C442.124 137.57 440.214 132.059 436.393 128.031C432.573 124.004 427.479 121.46 421.96 121.248C413.046 120.824 405.404 127.82 404.98 136.722C404.98 138.206 403.494 139.478 402.008 139.478C400.523 139.478 399.249 137.994 399.249 136.51C399.886 124.428 410.074 115.101 421.96 115.737C428.965 116.161 435.544 119.129 440.426 124.428C445.308 129.727 447.643 136.51 447.431 143.505C447.006 152.196 443.186 160.251 436.818 165.975C430.45 171.91 422.172 174.877 413.47 174.453C402.857 174.03 393.094 169.366 385.877 161.523C378.66 153.68 375.052 143.505 375.477 132.907C376.75 105.774 399.673 84.789 426.842 86.0609C442.973 86.6968 458.043 93.6918 469.08 105.774C480.118 117.645 485.636 133.331 484.999 149.441C483.938 171.486 472.901 191.411 456.133 204.766C469.293 215.788 486.485 221.723 504.739 221.723C543.581 221.723 574.995 194.591 574.995 161.099C575.207 146.049 569.052 131.635 557.59 120.612Z" fill="#F6F3EE" fill-opacity="0.71"/>
</svg>
