<svg width="437" height="173" viewBox="0 0 437 173" fill="none" xmlns="http://www.w3.org/2000/svg">
    <path d="M423.768 91.9204C422.962 91.2743 422.962 90.1434 423.446 89.1741C426.188 84.9739 427.64 80.2891 427.64 75.2811C427.64 61.2265 416.187 49.9181 402.314 49.9181C401.507 49.9181 400.539 49.9182 399.572 50.0797C398.926 50.0797 398.281 49.9181 397.797 49.4335C397.313 48.9488 397.152 48.3027 397.152 47.6565C397.313 46.3641 397.313 45.0717 397.313 43.9408C397.313 19.7087 377.633 0 353.436 0C338.111 0 323.593 8.2389 315.689 21.4858C315.366 21.9704 314.882 22.2935 314.398 22.455C313.915 22.6166 313.269 22.455 312.785 22.1319C295.364 10.9851 272.78 4.68482 249.551 4.68482C204.867 4.68482 165.991 27.3015 156.312 58.8032C167.604 61.5495 176.637 71.2424 177.444 83.1969C178.412 95.313 169.378 105.975 157.28 106.944C156.796 106.944 156.312 106.944 155.828 106.944C146.472 106.944 138.568 99.8363 137.922 90.305C137.277 82.0661 143.407 74.958 151.634 74.3118C158.409 73.8272 164.378 78.8352 164.862 85.6202C165.345 91.2743 161.151 96.2822 155.505 96.7669C153.247 96.9284 150.989 96.2822 149.214 94.6668C147.44 93.2129 146.311 91.1127 146.149 88.6895C145.988 87.5587 146.956 86.4279 148.085 86.4279C149.214 86.2663 150.343 87.2356 150.343 88.3664C150.505 89.4972 150.989 90.6281 151.795 91.4358C152.763 92.2436 153.892 92.5666 155.021 92.4051C158.248 92.082 160.829 89.1741 160.506 85.9432C160.184 81.5814 156.312 78.1889 151.795 78.512C145.988 78.9967 141.633 84.1662 142.116 89.9819C142.762 97.5746 149.376 103.229 156.957 102.583C166.797 101.775 174.056 93.2129 173.25 83.3585C172.282 72.0501 162.281 62.842 150.827 62.1958C150.343 62.1958 150.021 62.1958 149.537 62.1958C127.114 62.1958 109.047 80.4506 109.047 102.744C109.047 106.46 109.531 110.337 110.66 113.891C126.792 114.376 147.278 116.476 168.733 122.453C172.443 123.422 175.992 124.23 179.38 124.715C185.671 125.038 190.51 123.261 193.737 119.707C200.512 112.275 198.576 98.867 198.576 98.867C198.415 97.7361 199.221 96.6053 200.35 96.4438C201.479 96.2822 202.609 97.09 202.77 98.2208C202.931 98.867 204.867 113.729 196.802 122.614C195.834 123.745 194.543 124.715 193.414 125.522C207.448 124.715 216.643 119.06 221.16 112.599C225.676 106.137 225.838 98.544 221.644 92.8898C220.998 91.9205 221.16 90.6281 222.128 89.8204C223.095 89.1742 224.386 89.3357 225.193 90.305C230.355 97.4131 230.193 107.106 224.709 115.022C219.224 123.099 207.609 129.884 190.188 129.884C186.639 129.884 182.929 129.561 178.896 128.915H178.735C175.186 128.43 171.637 127.622 167.765 126.492C126.308 115.022 88.5606 118.091 80.1723 118.899C48.3937 123.261 21.6159 139.092 0 166.071C11.7758 159.124 32.7464 149.754 60.8148 149.754C72.1067 149.754 84.5278 151.208 97.9167 155.086C186.477 179.802 236.646 178.995 251.487 152.339C251.809 151.855 252.293 151.37 252.777 151.37C253.422 151.208 253.906 151.37 254.39 151.693C267.618 160.417 283.588 164.94 300.526 164.94C313.592 164.94 326.174 162.194 337.305 157.024C340.37 155.247 343.273 152.985 346.016 150.724C357.146 140.869 363.599 127.622 364.244 113.568C364.728 102.421 360.857 91.5974 353.275 83.3585C345.693 75.1195 335.369 70.2731 324.239 69.7884C306.01 68.9807 290.524 83.1969 289.718 101.452C289.395 108.398 291.815 115.022 296.493 120.191C301.171 125.361 307.623 128.43 314.56 128.592C320.044 128.753 325.206 126.976 329.239 123.261C333.272 119.545 335.692 114.537 335.853 109.045C336.014 104.844 334.563 100.644 331.659 97.5746C328.755 94.5052 324.884 92.5666 320.69 92.4051C313.915 92.082 308.107 97.4131 307.785 104.198C307.785 105.329 306.656 106.298 305.526 106.298C304.397 106.298 303.429 105.167 303.429 104.037C303.913 94.8283 311.656 87.7202 320.69 88.2049C326.013 88.528 331.014 90.7896 334.724 94.8283C338.434 98.867 340.209 104.036 340.047 109.368C339.725 115.991 336.821 122.13 331.982 126.492C327.142 131.015 320.851 133.277 314.237 132.954C306.172 132.63 298.751 129.076 293.267 123.099C287.782 117.122 285.04 109.368 285.362 101.29C286.33 80.6121 303.752 64.6189 324.4 65.5882C336.66 66.0729 348.113 71.4039 356.501 80.6121C364.889 89.6588 369.083 101.613 368.6 113.891C367.793 130.692 359.405 145.877 346.661 156.055C356.662 164.455 369.729 168.979 383.602 168.979C413.122 168.979 436.996 148.301 436.996 122.776C437.157 111.306 432.479 100.321 423.768 91.9204Z" fill="#F6F3EE" fill-opacity="0.62"/>
</svg>
