<svg width="329" height="160" viewBox="0 0 329 160" fill="none" xmlns="http://www.w3.org/2000/svg">
    <path d="M315.477 91.1072C309.421 86.4675 301.956 83.6555 294.21 83.6555C279.704 83.6555 267.874 95.4658 267.874 109.947C267.874 121.336 277.169 130.756 288.718 130.756C297.731 130.756 305.055 123.445 305.055 114.446C305.055 107.417 299.28 101.652 292.239 101.652C291.393 101.652 290.83 101.09 290.83 100.246C290.83 99.4025 291.534 98.8401 292.239 98.8401C300.83 98.8401 307.871 105.87 307.871 114.446C307.871 124.991 299.28 133.568 288.718 133.568C275.62 133.568 265.057 123.023 265.057 109.947C265.057 93.9192 278.155 80.8436 294.21 80.8436C297.309 80.8436 300.266 81.2654 303.083 81.9684C301.111 78.3129 298.295 75.3602 294.914 73.1107C281.957 65.659 268.296 72.689 268.155 72.8296C267.451 73.2514 266.606 72.9701 266.184 72.2671C265.761 71.5641 266.043 70.7205 266.747 70.2987C267.169 70.1581 273.225 66.9244 281.394 66.7838C273.085 58.2074 262.24 52.7241 250.269 51.1775C249.565 51.0369 249.142 50.6151 249.001 49.9121C246.748 21.9332 222.806 0 194.779 0C175.484 0 157.316 10.4043 147.598 27.1354C147.316 27.5572 146.894 27.8384 146.471 27.8384C132.388 28.2602 121.261 37.5396 120.98 48.928C129.43 46.2566 138.866 47.2409 146.894 52.1618C152.809 55.6767 156.893 61.3005 158.443 68.0492C159.992 74.6573 159.006 81.5466 155.344 87.4517C152.387 92.232 147.88 95.4657 142.528 96.8717C140.838 97.2935 139.289 97.4341 137.598 97.4341C133.796 97.4341 130.134 96.45 126.754 94.341C118.726 89.4201 116.332 79.0159 121.121 71.1425C123.092 68.0493 126.05 65.7997 129.712 64.9561C133.373 64.1125 137.035 64.6749 140.134 66.6432C140.838 67.065 140.979 67.9086 140.556 68.6116C140.134 69.3146 139.289 69.4553 138.584 69.0335C136.049 67.4869 133.092 67.0651 130.275 67.7681C127.458 68.4711 125.064 70.1582 123.515 72.689C119.43 79.2971 121.543 88.014 128.162 92.0913C132.247 94.6221 137.035 95.3251 141.824 94.2003C146.471 93.0755 150.415 90.2637 152.95 86.0458C156.189 80.8437 157.034 74.6573 155.626 68.7522C154.217 62.8471 150.556 57.7856 145.345 54.6925C134.782 48.225 121.825 49.3498 112.529 56.5203C103.798 64.1125 98.7273 75.2197 98.7273 87.0299C98.7273 88.717 98.8682 90.4042 99.0091 92.0913C99.0091 92.2319 99.0091 92.232 99.0091 92.3726C99.2907 94.0598 99.5723 95.747 99.9949 97.2936C99.9949 97.4342 99.9949 97.5746 99.9949 97.7152C101.262 103.058 104.079 109.526 109.431 113.322C111.403 105.729 115.205 100.808 115.346 100.808C115.91 100.246 116.755 100.106 117.318 100.668C117.881 101.23 118.022 102.074 117.459 102.636C116.895 103.199 105.628 117.54 114.642 136.098C114.924 136.801 114.642 137.645 113.938 137.926C113.797 138.067 113.515 138.067 113.374 138.067C112.811 138.067 112.389 137.786 112.107 137.223C109.853 132.443 108.727 128.084 108.445 123.867C104.643 125.413 93.2347 130.474 77.32 139.191C58.5886 150.018 44.3639 152.408 35.2095 152.408C28.1676 152.408 24.2241 151.002 23.9424 150.861C23.2382 150.58 22.8158 149.736 23.0974 149.033C23.3791 148.33 24.224 147.909 24.9282 148.19C25.0691 148.33 43.8006 155.22 75.7708 136.801C93.5164 126.96 105.628 121.898 108.164 120.914C108.164 119.227 108.304 117.68 108.586 116.274C108.586 116.274 108.445 116.274 108.445 116.134C105.91 114.587 103.938 112.478 102.248 110.228L75.3482 125.554C75.0666 125.694 74.9257 125.694 74.6441 125.694C74.2215 125.694 73.6582 125.413 73.3765 124.991C72.954 124.288 73.2357 123.445 73.9399 123.023L100.699 107.698C99.1498 105.026 98.1639 102.214 97.3189 99.5431C92.3896 102.355 87.3195 105.308 82.3901 108.682C47.3215 132.021 22.1115 141.863 7.3235 137.786C4.08423 136.942 1.83089 135.395 0 133.849C1.1267 138.77 3.94342 146.221 10.7036 151.564C19.8581 158.875 33.6602 160.562 51.5466 156.766C61.9686 154.517 70.5598 151.986 78.165 149.736C102.671 142.425 118.726 137.645 158.161 153.251C159.288 153.814 160.555 154.235 161.682 154.657C165.625 156.063 169.85 156.766 174.076 156.766C180.977 156.766 187.455 154.938 193.229 151.564C193.37 151.424 193.511 151.424 193.652 151.283C193.793 151.283 193.793 151.142 193.934 151.142C197.173 149.174 200.131 146.643 202.666 143.691C207.032 137.364 208.018 129.068 204.637 121.617C202.666 117.399 199.145 114.025 194.779 112.478C190.413 110.931 185.624 111.072 181.258 112.9C177.878 114.446 175.343 117.118 174.076 120.633C172.808 124.148 172.949 127.803 174.498 131.178C177.033 136.52 183.371 138.91 188.723 136.52C190.694 135.536 192.244 133.989 193.089 131.88C193.934 129.772 193.793 127.522 192.807 125.554C191.399 122.32 187.596 120.914 184.357 122.461C181.963 123.585 180.836 126.397 181.962 128.787C182.244 129.49 181.962 130.334 181.258 130.615C180.554 130.896 179.709 130.615 179.427 129.912C177.737 126.116 179.427 121.476 183.23 119.789C187.878 117.68 193.37 119.648 195.483 124.288C196.751 126.96 196.891 130.053 195.765 132.865C194.779 135.677 192.666 137.926 189.99 139.051C183.23 142.144 175.061 139.192 171.963 132.302C170.132 128.225 169.991 123.726 171.541 119.649C173.09 115.431 176.188 112.197 180.272 110.369C185.202 108.119 190.835 107.838 195.905 109.807C200.976 111.775 205.06 115.431 207.313 120.492C210.552 127.522 210.271 135.395 207.032 142.003C216.89 151.142 229.566 156.204 243.086 156.204C250.55 156.204 257.733 154.657 264.494 151.705C264.634 151.564 264.916 151.564 265.057 151.564C265.338 151.564 265.62 151.705 265.902 151.845C272.803 157.188 281.112 160 289.844 160C311.393 160 328.997 142.425 328.997 120.914C329.138 109.244 324.068 98.4183 315.477 91.1072ZM240.269 58.0668C239.988 58.7698 239.143 59.1916 238.439 58.9104C237.734 58.6292 221.82 52.5835 212.665 64.5343C215.904 69.4552 218.017 75.9228 217.735 84.4992C217.735 85.2022 217.031 85.9052 216.327 85.9052C215.482 85.9052 214.919 85.2022 214.919 84.4992C215.059 76.204 212.947 70.1583 209.989 65.5186C209.848 65.378 209.708 65.2373 209.567 64.9561C202.102 54.4113 189.568 52.8647 188.723 52.7241C187.878 52.5835 187.455 51.8805 187.455 51.1775C187.596 50.3339 188.3 49.7715 189.004 49.9121C189.145 49.9121 202.384 51.5994 210.834 62.1442C221.397 49.3498 239.283 56.239 239.424 56.239C240.129 56.5202 240.551 57.3638 240.269 58.0668Z" fill="#F6F3EE" fill-opacity="0.71"/>
</svg>
