<svg width="234" height="175" viewBox="0 0 234 175" fill="none" xmlns="http://www.w3.org/2000/svg">
    <g opacity="0.8">
        <path d="M117.133 95.9967C124.543 95.9967 130.774 98.8597 135.153 104.249C140.205 110.48 142.226 119.912 140.205 128.838C139.869 130.353 139.363 131.701 138.858 133.048C142.058 128.669 144.584 123.954 145.763 119.07C148.121 107.954 145.763 96.1651 139.363 88.2495C134.143 81.6814 126.395 78.3131 117.301 78.3131C107.365 78.3131 98.9437 82.5234 93.386 90.2705C87.4915 98.5229 85.6389 109.47 88.8388 119.07C90.1861 122.943 92.2071 126.817 94.7333 130.353C94.5649 129.848 94.3965 129.511 94.2281 129.006C91.7019 121.259 93.0492 112.333 97.9333 105.765C102.144 99.365 109.049 95.9967 117.133 95.9967Z" fill="#F6F3EE"/>
        <path d="M130.27 137.09C131.449 131.869 130.27 126.311 127.238 122.606C124.712 119.575 121.175 117.891 116.965 117.891C112.418 117.891 108.376 119.912 105.681 123.448C102.818 127.322 102.144 132.543 103.492 136.922C105.176 142.311 110.397 147.532 113.934 150.563C115.281 151.574 116.291 152.416 116.965 152.921C119.828 151.068 128.754 144.5 130.27 137.09Z" fill="#F6F3EE"/>
        <path d="M196.627 43.6195L183.995 58.2716C183.995 58.2716 191.743 94.9861 172.88 113.007C183.659 91.281 187.869 61.1347 168.333 22.9044C170.017 31.9988 173.385 53.3876 171.364 76.6289C169.849 94.4809 165.47 109.975 158.228 122.438C149.976 137.09 137.85 147.532 122.355 153.931C171.364 157.3 199.153 147.195 213.805 138.1C224.92 131.195 230.31 123.954 232.836 119.743C229.299 116.038 216.163 106.27 182.816 113.68C189.048 110.48 196.795 108.796 202.689 107.786C208.079 91.4495 214.647 68.8818 196.627 43.6195Z" fill="#F6F3EE"/>
        <path d="M233.34 123.448C230.14 127.827 224.582 134.059 215.319 139.953C202.183 148.037 179.278 156.795 141.217 156.795C134.143 156.795 126.564 156.458 118.48 155.784C123.365 162.184 140.543 180.373 172.037 172.289C172.037 172.289 171.868 165.721 168.331 162.689C168.331 162.858 221.887 163.363 233.34 123.448Z" fill="#F6F3EE"/>
        <path d="M18.4411 139.953C10.1888 134.732 4.7995 129.343 1.59961 125.133C14.0623 163.363 66.1026 162.858 66.1026 162.858C62.7343 165.721 62.3975 172.457 62.3975 172.457C94.0595 180.541 111.069 162.352 115.953 155.953C107.533 156.626 99.7857 156.963 92.5438 156.963C54.3136 156.795 31.4091 148.037 18.4411 139.953Z" fill="#F6F3EE"/>
        <path d="M19.7892 137.932C34.6098 147.026 62.2299 156.963 111.07 153.594C95.5761 147.195 83.6186 136.753 75.1979 122.101C68.1244 109.638 63.7456 94.144 62.0614 76.292C60.2088 54.9032 62.9035 34.8617 64.7561 24.7568C46.3988 61.9766 50.6092 91.4493 61.2193 112.838C42.3568 94.9861 50.104 58.1031 50.104 58.1031L37.4728 43.451C19.4524 68.7133 26.0206 91.4493 31.0731 107.449C37.136 108.291 44.8831 110.143 50.946 113.343C16.0841 105.596 3.28449 116.712 0.589844 119.911C3.4529 124.122 9.17906 131.364 19.7892 137.932Z" fill="#F6F3EE"/>
        <path d="M87.9983 28.9673C89.6824 28.9673 91.0297 27.62 91.0297 25.9359C91.0297 24.2517 89.6824 22.9044 87.9983 22.9044C86.3141 22.9044 84.9668 24.2517 84.9668 25.9359C84.9668 27.62 86.3141 28.9673 87.9983 28.9673Z" fill="#F6F3EE"/>
        <path d="M67.9572 15.1572C69.6414 15.1572 70.9888 13.8098 70.9888 12.1257C70.9888 10.4415 69.6414 9.09424 67.9572 9.09424C66.2731 9.09424 64.9258 10.4415 64.9258 12.1257C64.9258 13.8098 66.2731 15.1572 67.9572 15.1572Z" fill="#F6F3EE"/>
        <path d="M54.8186 28.6304C56.5027 28.6304 57.85 27.283 57.85 25.5988C57.85 23.9147 56.5027 22.5674 54.8186 22.5674C53.1344 22.5674 51.7871 23.9147 51.7871 25.5988C51.7871 27.283 53.1344 28.6304 54.8186 28.6304Z" fill="#F6F3EE"/>
        <path d="M46.2287 43.1142C47.9129 43.1142 49.2602 41.7669 49.2602 40.0827C49.2602 38.3986 47.9129 37.0513 46.2287 37.0513C44.5446 37.0513 43.1973 38.3986 43.1973 40.0827C43.1973 41.7669 44.5446 43.1142 46.2287 43.1142Z" fill="#F6F3EE"/>
        <path d="M40.1682 34.6935C41.8523 34.6935 43.1997 33.3462 43.1997 31.6621C43.1997 29.9779 41.8523 28.6306 40.1682 28.6306C38.484 28.6306 37.1367 29.9779 37.1367 31.6621C37.1367 33.3462 38.484 34.6935 40.1682 34.6935Z" fill="#F6F3EE"/>
        <path d="M99.1126 15.831C100.628 15.831 101.807 14.6521 101.807 13.1364C101.807 11.6206 100.628 10.4417 99.1126 10.4417C97.5968 10.4417 96.418 11.6206 96.418 13.1364C96.418 14.6521 97.5968 15.831 99.1126 15.831Z" fill="#F6F3EE"/>
        <path d="M117.132 5.3892C118.648 5.3892 119.827 4.21034 119.827 2.6946C119.827 1.17887 118.648 0 117.132 0C115.616 0 114.438 1.17887 114.438 2.6946C114.438 4.21034 115.616 5.3892 117.132 5.3892Z" fill="#F6F3EE"/>
        <path d="M132.964 15.831C134.48 15.831 135.659 14.6521 135.659 13.1364C135.659 11.6206 134.48 10.4417 132.964 10.4417C131.448 10.4417 130.27 11.6206 130.27 13.1364C130.27 14.6521 131.448 15.831 132.964 15.831Z" fill="#F6F3EE"/>
        <path d="M142.732 28.6305C144.247 28.6305 145.426 27.4516 145.426 25.9358C145.426 24.4201 144.247 23.2412 142.732 23.2412C141.216 23.2412 140.037 24.4201 140.037 25.9358C140.037 27.4516 141.216 28.6305 142.732 28.6305Z" fill="#F6F3EE"/>
        <path d="M169.175 12.1256C170.185 10.9467 170.185 9.26253 169.006 8.25204C167.827 7.24155 166.143 7.24161 165.133 8.42052C164.122 9.59942 164.122 11.2836 165.301 12.294C166.312 13.3045 167.996 13.3045 169.175 12.1256Z" fill="#F6F3EE"/>
        <path d="M176.079 25.094C177.258 25.936 179.11 25.5993 179.952 24.4204C180.794 23.2415 180.458 21.3888 179.279 20.5467C178.1 19.7047 176.247 20.0415 175.405 21.2204C174.563 22.5678 174.9 24.2519 176.079 25.094Z" fill="#F6F3EE"/>
        <path d="M185.678 40.9249C186.689 39.746 186.689 38.0619 185.51 37.0514C184.331 36.0409 182.647 36.0409 181.636 37.2198C180.626 38.3987 180.626 40.0828 181.805 41.0933C182.815 42.1038 184.5 41.9354 185.678 40.9249Z" fill="#F6F3EE"/>
        <path d="M197.3 35.1986C198.31 34.0197 198.31 32.3356 197.131 31.3251C195.952 30.3146 194.268 30.3146 193.258 31.4935C192.247 32.6724 192.247 34.3566 193.426 35.3671C194.605 36.3776 196.289 36.3775 197.3 35.1986Z" fill="#F6F3EE"/>
        <path d="M154.691 21.2202C156.206 21.2202 157.385 20.0414 157.385 18.5256C157.385 17.0099 156.206 15.8309 154.691 15.8309C153.175 15.8309 151.996 17.0099 151.996 18.5256C151.996 20.0414 153.175 21.2202 154.691 21.2202Z" fill="#F6F3EE"/>
        <path d="M81.5985 102.396C72.8409 74.4396 89.5141 43.788 89.5141 43.788L68.2937 21.3887C66.7779 28.799 62.736 51.7035 64.9254 76.2921C68.2937 114.017 83.6195 139.111 110.734 150.9C103.156 144.669 90.8613 132.711 86.4825 119.743C83.1142 109.47 84.9668 97.5124 91.3666 88.7548C97.4295 80.5024 106.692 75.7869 117.303 75.7869C127.239 75.7869 135.491 79.492 141.386 86.7339C148.123 95.1547 150.817 107.786 148.291 119.575C145.596 132.038 134.312 142.985 126.397 149.553C151.659 137.258 165.975 112.67 169.174 76.2921C171.195 52.2088 167.49 29.9779 165.975 22.0624L145.259 43.9564C145.259 43.9564 160.754 72.587 153.849 99.8703C155.701 74.1027 148.965 42.7775 117.639 15.3258C85.1352 43.6196 79.0723 76.1237 81.5985 102.396ZM117.134 29.6411C118.481 29.6411 119.66 30.82 119.66 32.1673C119.66 33.5146 118.481 34.6936 117.134 34.6936C115.787 34.6936 114.608 33.5146 114.608 32.1673C114.608 30.82 115.787 29.6411 117.134 29.6411ZM119.492 44.1248C119.492 45.4721 118.481 46.4826 117.134 46.4826C115.787 46.4826 114.776 45.4721 114.776 44.1248C114.776 42.7774 115.787 41.767 117.134 41.767C118.481 41.767 119.492 42.7774 119.492 44.1248ZM117.134 54.3982C119.997 54.3982 122.187 56.5876 122.187 59.4506C122.187 62.3137 119.997 64.5031 117.134 64.5031C114.271 64.5031 112.082 62.3137 112.082 59.4506C112.082 56.5876 114.439 54.3982 117.134 54.3982Z" fill="#F6F3EE"/>
    </g>
</svg>
