<svg width="73" height="94" viewBox="0 0 73 94" fill="none" xmlns="http://www.w3.org/2000/svg">
    <path d="M58 24.2891C58 17.5984 52.5695 12.1446 45.9073 12.1446C44.1718 12.1446 42.5483 12.4819 41.0367 13.1566C41.0367 12.8193 41.0927 12.4819 41.0927 12.1446C41.0927 5.45382 35.6622 0 29 0C22.3378 0 16.9073 5.45382 16.9073 12.1446C16.9073 12.4819 16.9073 12.8193 16.9633 13.1566C15.5077 12.4819 13.8282 12.1446 12.0927 12.1446C5.4305 12.1446 0 17.5984 0 24.2891C0 30.0241 3.9749 34.8594 9.29343 36.0964C7.55791 38.1767 6.4942 40.9317 6.4942 43.8554C6.4942 50.5462 11.9247 56 18.5869 56C23.0097 56 26.8726 53.6386 28.944 50.0964C31.0714 53.6386 34.8784 56 39.3012 56C45.9633 56 51.3938 50.5462 51.3938 43.8554C51.3938 40.8755 50.3301 38.1767 48.5946 36.0964C54.0251 34.8594 58 30.0241 58 24.2891ZM44.3398 24.6827C43.9479 24.7952 43.556 24.6265 43.388 24.3454L36.8378 26.7068C36.9498 27.1004 37.0618 27.5502 37.1178 28L38.2375 27.7189C38.2375 27.3253 38.5174 26.9879 38.8533 26.8755C39.3571 26.7068 39.861 26.9879 40.029 27.494C40.1969 28 39.917 28.506 39.4131 28.6747C38.9653 28.8434 38.4614 28.5622 38.2375 28.1124L37.1178 28.2811C37.1178 28.506 37.1178 28.6747 37.1178 28.8996C37.1178 29.1245 37.1178 29.2932 37.1178 29.5181L42.6042 29.2369C42.6602 28.8996 42.8842 28.6185 43.2201 28.506C43.668 28.3373 44.1718 28.6185 44.3398 29.0683C44.5077 29.5181 44.2278 30.0241 43.7799 30.1928C43.3321 30.3614 42.8842 30.1365 42.7162 29.6867L37.1178 29.6305C37.0058 30.4739 36.7819 31.3173 36.4459 32.1044L37.3977 32.5542L37.4537 32.498C37.7336 32.2731 38.1255 32.3293 38.3494 32.6104C38.5734 32.8916 38.5174 33.2851 38.2375 33.51C37.9575 33.7349 37.5656 33.6787 37.3417 33.3976C37.2297 33.2289 37.1737 33.0602 37.2297 32.8353L36.334 32.3293C36.222 32.6104 36.0541 32.8353 35.8861 33.1165L41.8205 36.7711C42.0444 36.6024 42.3803 36.6586 42.5483 36.8835C42.7722 37.1084 42.7162 37.502 42.4923 37.6707C42.2683 37.8956 41.8765 37.8394 41.7085 37.6145C41.5965 37.502 41.5965 37.3333 41.5965 37.2209L35.8861 33.3414C35.6622 33.7349 35.3822 34.0723 35.0463 34.4096L38.1255 36.9397C38.5174 36.6586 39.0772 36.7149 39.4131 37.1084C39.749 37.502 39.6931 38.0642 39.3012 38.4016C38.9093 38.7389 38.3494 38.6827 38.0135 38.2892C37.7896 38.008 37.7336 37.6144 37.9015 37.2771L34.9344 34.6345C34.7104 34.8594 34.4865 35.0843 34.2066 35.3092L39.3012 40.8193C39.6371 40.6506 40.0849 40.7068 40.3649 41.0442C40.6448 41.3815 40.5888 41.9438 40.2529 42.2249C39.917 42.506 39.3572 42.4498 39.0772 42.1124C38.8533 41.8313 38.8533 41.3815 39.0772 41.1004L34.1506 35.4217C33.8147 35.7028 33.4788 35.9277 33.1429 36.0964L34.0386 37.3896C34.3745 37.2771 34.8224 37.3896 35.0463 37.6707C35.3822 38.0643 35.3263 38.6827 34.9344 38.9638C34.5425 39.3012 33.9266 39.245 33.6467 38.8514C33.3108 38.4578 33.3668 37.8956 33.7587 37.5582L32.9189 36.1526C32.583 36.3213 32.1911 36.49 31.8552 36.6024L34.2626 42.0562C34.5985 42 34.9344 42.1124 35.1583 42.3936C35.4942 42.7871 35.4382 43.3494 35.0463 43.6867C34.6544 44.0241 34.0946 43.9679 33.7587 43.5743C33.4788 43.2369 33.4788 42.7309 33.8147 42.3936L31.6873 36.7711C30.9035 37.0522 30.0637 37.1647 29.168 37.1647C28.7201 37.1647 28.3282 37.1084 27.8803 37.0522L27.7683 37.9518C27.7683 37.9518 27.8243 37.9518 27.8243 38.008C28.1042 38.1767 28.2162 38.5703 27.9923 38.8514C27.8243 39.1325 27.4324 39.245 27.1525 39.0201C26.8726 38.8514 26.7606 38.4578 26.9846 38.1767C27.0965 38.008 27.2645 37.8956 27.4324 37.8956L27.6004 36.996C27.3205 36.9398 27.0405 36.8835 26.7606 36.7711L25.1371 43.4618C25.361 43.6305 25.417 43.9679 25.249 44.1928C25.0811 44.4739 24.7452 44.5301 24.4653 44.3614C24.1853 44.1928 24.1293 43.8554 24.2973 43.5743C24.4093 43.4618 24.5212 43.3494 24.6332 43.3494L26.5927 36.7711C26.1448 36.6024 25.7529 36.4337 25.361 36.2088L23.9054 39.9197C24.2973 40.2008 24.4093 40.763 24.1293 41.2128C23.8494 41.6626 23.2896 41.7751 22.8417 41.494C22.3938 41.2128 22.2819 40.6506 22.5618 40.2008C22.7857 39.8634 23.1216 39.751 23.5135 39.8072L25.1931 36.1526C24.9131 35.9839 24.6332 35.8153 24.4093 35.6466L20.7143 42.2811C20.9942 42.5622 21.0502 43.012 20.8263 43.3494C20.5463 43.743 20.0425 43.8554 19.6506 43.5743C19.2587 43.2932 19.1467 42.7871 19.4266 42.3936C19.6506 42.0562 20.0425 41.9438 20.3784 42.0562L24.2973 35.5904C23.9614 35.3655 23.6815 35.0843 23.3456 34.747L22.2819 36.1526C22.5058 36.4337 22.5058 36.8835 22.2819 37.2209C22.0019 37.6707 21.4421 37.7831 20.9942 37.502C20.5463 37.2209 20.4344 36.6586 20.7143 36.2088C20.9942 35.8153 21.4981 35.6466 21.9459 35.9277L23.1216 34.5783C22.8417 34.2972 22.6178 34.0161 22.3938 33.6787L17.8031 37.7269C17.971 38.008 17.971 38.3454 17.7471 38.6827C17.4672 39.0763 16.9073 39.1887 16.5154 38.9638C16.1236 38.6827 16.0116 38.1205 16.2355 37.7269C16.5154 37.3333 16.9633 37.2209 17.4112 37.4458L22.2819 33.5662C21.722 32.6667 21.2741 31.6546 21.1062 30.5863L20.3224 30.8112V30.8675C20.2664 31.2048 19.9305 31.4297 19.5946 31.3735C19.2587 31.3173 19.0347 30.9799 19.0907 30.6426C19.1467 30.3052 19.4826 30.0803 19.8185 30.1365C20.0425 30.1928 20.1544 30.3052 20.2664 30.4739L21.0502 30.3052C20.9942 30.0241 20.9942 29.743 20.9942 29.4056L14.2761 30.4177C14.1641 30.6988 13.9402 30.8675 13.6042 30.8112C13.2683 30.755 13.1004 30.4739 13.1564 30.1365C13.2124 29.7992 13.4923 29.6305 13.8282 29.6867C13.9961 29.743 14.1081 29.7992 14.1641 29.9116L20.9382 29.1807V29.1245C20.9382 28.6747 20.9942 28.2249 21.0502 27.8313L17.0193 27.8876C16.9073 28.3936 16.4595 28.6747 15.9556 28.6185C15.4517 28.506 15.1158 28.0562 15.2278 27.5502C15.3398 27.0442 15.7876 26.7068 16.2915 26.8193C16.6834 26.8755 16.9633 27.1566 17.0193 27.5502L21.0502 27.7189C21.1062 27.3815 21.1622 27.1004 21.2741 26.7631L13.6602 25.8072C13.4923 26.1446 13.1004 26.3695 12.7085 26.3132C12.2606 26.2008 11.9807 25.8072 12.0367 25.3574C12.1487 24.9076 12.5405 24.6265 12.9884 24.6827C13.3803 24.739 13.6602 25.0763 13.6602 25.4699L21.2181 26.6506C21.3301 26.257 21.4981 25.8634 21.666 25.5261L19.7626 25.0201C19.5386 25.3574 19.2027 25.5261 18.8108 25.4699C18.3069 25.3574 17.971 24.8514 18.083 24.3454C18.195 23.8393 18.6988 23.502 19.2027 23.6145C19.7066 23.7269 19.9865 24.1767 19.9305 24.6265L21.778 25.3012C21.9459 24.9639 22.1699 24.6265 22.3938 24.3454L16.6274 21.5341C16.4035 21.8153 16.1235 21.9277 15.7317 21.8715C15.2278 21.759 14.9479 21.3092 15.0039 20.8032C15.1158 20.2972 15.5637 20.0161 16.0676 20.0723C16.5154 20.1847 16.7954 20.5783 16.7954 21.0281L22.4498 24.2329C23.1216 23.3333 24.0174 22.6024 25.0251 22.0401L24.5772 20.8594H24.5212C24.1853 20.8032 23.9054 20.5221 23.9614 20.1847C24.0174 19.8474 24.2973 19.5663 24.6332 19.6225C24.9691 19.6787 25.249 19.9598 25.1931 20.2972C25.1931 20.5221 25.0811 20.6908 24.9131 20.747L25.249 21.8715C25.529 21.759 25.7529 21.6466 26.0328 21.5341L24.3533 14.7309C24.0734 14.6747 23.9054 14.3936 23.9054 14.1125C23.9614 13.7751 24.2413 13.5502 24.5212 13.6064C24.8571 13.6626 25.0811 13.9438 25.0251 14.2249C25.0251 14.3936 24.9131 14.506 24.8012 14.6185L26.1448 21.4779C26.5927 21.3092 26.9846 21.1968 27.4324 21.1406L27.0405 17.261C26.5367 17.2048 26.2008 16.755 26.2568 16.249C26.3127 15.743 26.7606 15.3494 27.2645 15.4056C27.7683 15.4618 28.1602 15.9116 28.1042 16.4177C28.0483 16.8112 27.8243 17.0924 27.4884 17.2048L27.7124 21.0843C28.0483 21.0281 28.3842 21.0281 28.6641 21.0281L28.888 13.7751C28.4961 13.6626 28.2722 13.2691 28.3282 12.8755C28.3842 12.4257 28.7761 12.0884 29.2239 12.1446C29.6718 12.2008 30.0077 12.5944 29.9517 13.0442C29.8958 13.4377 29.6158 13.7189 29.2239 13.7751L28.7761 21.0281C29.2239 21.0281 29.6158 21.0843 30.0637 21.1406L30.2876 19.9036C29.9517 19.7349 29.7278 19.3976 29.7838 18.9478C29.8398 18.4418 30.2876 18.0482 30.7915 18.1044C31.2954 18.1606 31.6873 18.6104 31.6313 19.1165C31.5753 19.6225 31.1834 19.9598 30.6795 19.9598L30.3996 21.1406C30.7915 21.1968 31.1834 21.3092 31.5753 21.4779L33.4788 16.4177C33.1988 16.249 33.0309 15.9116 33.0869 15.5743C33.1429 15.0683 33.5907 14.7309 34.0946 14.7871C34.5985 14.8434 34.9344 15.2932 34.8784 15.7992C34.8224 16.249 34.4305 16.5863 33.9826 16.5863L31.7432 21.5904C32.751 21.9839 33.7027 22.6024 34.4305 23.3896L34.7664 23.0522V22.996C34.6544 22.6586 34.8224 22.3213 35.1583 22.2088C35.4942 22.0964 35.8301 22.265 35.9421 22.6024C36.0541 22.9397 35.8861 23.2771 35.5502 23.3896C35.3822 23.4458 35.1583 23.3896 34.9904 23.3333L34.6544 23.6145C34.8784 23.8394 35.0463 24.0642 35.2143 24.2891L40.1969 20.4096C40.1409 20.1285 40.3089 19.8474 40.5888 19.7349C40.8687 19.6225 41.2046 19.7912 41.3166 20.1285C41.4286 20.4096 41.2606 20.747 40.9247 20.8594C40.7568 20.9157 40.6448 20.9157 40.4768 20.8032L35.2703 24.4578C35.5502 24.8514 35.7741 25.245 35.9981 25.6386L38.9653 23.9518C38.7973 23.4458 39.0772 22.9398 39.5811 22.8273C40.0849 22.6586 40.5888 22.9397 40.7568 23.4458C40.9247 23.9518 40.6448 24.4578 40.1409 24.6265C39.805 24.7389 39.4131 24.6265 39.1892 24.3454L36.11 25.9197C36.222 26.2008 36.39 26.5381 36.4459 26.8755L42.8842 24.2891C42.8282 23.8956 43.0521 23.502 43.444 23.3896C43.8919 23.2209 44.3398 23.502 44.5077 23.9518C45.0116 24.0643 44.7317 24.5141 44.3398 24.6827Z" fill="#F6F3EE"/>
    <path d="M73 75.8795C73 72.0562 69.8166 68.9398 65.9112 68.9398C64.8938 68.9398 63.9421 69.1325 63.056 69.5181C63.056 69.3253 63.0888 69.1325 63.0888 68.9398C63.0888 65.1165 59.9054 62 56 62C52.0946 62 48.9112 65.1165 48.9112 68.9398C48.9112 69.1325 48.9112 69.3253 48.944 69.5181C48.0907 69.1325 47.1062 68.9398 46.0888 68.9398C42.1834 68.9398 39 72.0562 39 75.8795C39 79.1566 41.3301 81.9197 44.4479 82.6265C43.4305 83.8153 42.8069 85.3896 42.8069 87.0602C42.8069 90.8835 45.9903 94 49.8958 94C52.4884 94 54.7529 92.6506 55.9672 90.6265C57.2143 92.6506 59.4459 94 62.0386 94C65.944 94 69.1274 90.8835 69.1274 87.0602C69.1274 85.3574 68.5039 83.8153 67.4865 82.6265C70.6699 81.9197 73 79.1566 73 75.8795ZM64.9923 76.1044C64.7625 76.1687 64.5328 76.0723 64.4344 75.9116L60.5946 77.261C60.6602 77.4859 60.7259 77.743 60.7587 78L61.4151 77.8394C61.4151 77.6145 61.5791 77.4217 61.7761 77.3574C62.0714 77.261 62.3668 77.4217 62.4653 77.7108C62.5637 78 62.3996 78.2892 62.1042 78.3855C61.8417 78.4819 61.5463 78.3213 61.4151 78.0643L60.7587 78.1606C60.7587 78.2892 60.7587 78.3855 60.7587 78.5141C60.7587 78.6426 60.7587 78.739 60.7587 78.8675L63.9749 78.7068C64.0077 78.5141 64.139 78.3534 64.3359 78.2892C64.5985 78.1928 64.8938 78.3534 64.9923 78.6104C65.0907 78.8675 64.9266 79.1566 64.6641 79.253C64.4015 79.3494 64.139 79.2209 64.0405 78.9639L60.7587 78.9317C60.6931 79.4136 60.5618 79.8956 60.3649 80.3454L60.9228 80.6024L60.9556 80.5703C61.1197 80.4418 61.3494 80.4739 61.4807 80.6345C61.612 80.7952 61.5792 81.0201 61.4151 81.1486C61.251 81.2771 61.0212 81.245 60.89 81.0843C60.8243 80.9879 60.7915 80.8916 60.8243 80.7631L60.2992 80.4739C60.2336 80.6345 60.1351 80.7631 60.0367 80.9237L63.5154 83.012C63.6467 82.9157 63.8436 82.9478 63.9421 83.0763C64.0734 83.2048 64.0405 83.4297 63.9093 83.5261C63.778 83.6546 63.5483 83.6225 63.4498 83.494C63.3842 83.4297 63.3842 83.3333 63.3842 83.2691L60.0367 81.0522C59.9054 81.2771 59.7413 81.4699 59.5444 81.6626L61.3494 83.1084C61.5791 82.9478 61.9073 82.9799 62.1042 83.2048C62.3012 83.4297 62.2683 83.751 62.0386 83.9438C61.8089 84.1365 61.4807 84.1044 61.2838 83.8795C61.1525 83.7189 61.1197 83.494 61.2181 83.3012L59.4788 81.7912C59.3475 81.9197 59.2162 82.0482 59.0521 82.1767L62.0386 85.3253C62.2355 85.2289 62.4981 85.261 62.6622 85.4538C62.8263 85.6466 62.7934 85.9679 62.5965 86.1285C62.3996 86.2892 62.0714 86.257 61.9073 86.0643C61.7761 85.9036 61.7761 85.6466 61.9073 85.4859L59.0193 82.241C58.8224 82.4016 58.6255 82.5301 58.4286 82.6265L58.9537 83.3655C59.1506 83.3012 59.4131 83.3655 59.5444 83.5261C59.7413 83.751 59.7085 84.1044 59.4788 84.2651C59.249 84.4578 58.888 84.4257 58.7239 84.2008C58.527 83.9759 58.5598 83.6546 58.7896 83.4618L58.2973 82.6586C58.1004 82.755 57.8707 82.8514 57.6737 82.9157L59.0849 86.0321C59.2819 86 59.4788 86.0643 59.61 86.2249C59.807 86.4498 59.7741 86.7711 59.5444 86.9638C59.3147 87.1566 58.9865 87.1245 58.7896 86.8996C58.6255 86.7068 58.6255 86.4177 58.8224 86.2249L57.5753 83.012C57.1158 83.1727 56.6236 83.2369 56.0985 83.2369C55.8359 83.2369 55.6062 83.2048 55.3436 83.1727L55.278 83.6867C55.278 83.6867 55.3108 83.6867 55.3108 83.7189C55.4749 83.8153 55.5405 84.0402 55.4093 84.2008C55.3108 84.3614 55.0811 84.4257 54.917 84.2972C54.7529 84.2008 54.6873 83.9759 54.8185 83.8153C54.8842 83.7189 54.9826 83.6546 55.0811 83.6546L55.1795 83.1406C55.0154 83.1084 54.8514 83.0763 54.6873 83.012L53.7355 86.8353C53.8668 86.9317 53.8996 87.1245 53.8012 87.253C53.7027 87.4137 53.5058 87.4458 53.3417 87.3494C53.1776 87.253 53.1448 87.0602 53.2432 86.8996C53.3089 86.8353 53.3745 86.7711 53.4402 86.7711L54.5888 83.012C54.3263 82.9157 54.0965 82.8193 53.8668 82.6908L53.0135 84.8112C53.2432 84.9719 53.3089 85.2932 53.1448 85.5502C52.9807 85.8072 52.6525 85.8715 52.39 85.7108C52.1274 85.5502 52.0618 85.2289 52.2259 84.9719C52.3571 84.7791 52.5541 84.7149 52.7838 84.747L53.7683 82.6586C53.6042 82.5622 53.4402 82.4659 53.3089 82.3695L51.1429 86.1606C51.307 86.3213 51.3398 86.5783 51.2085 86.7711C51.0444 86.996 50.749 87.0602 50.5193 86.8996C50.2896 86.739 50.2239 86.4498 50.388 86.2249C50.5193 86.0321 50.749 85.9679 50.9459 86.0321L53.2432 82.3373C53.0463 82.2088 52.8822 82.0482 52.6853 81.8554L52.0618 82.6586C52.1931 82.8193 52.1931 83.0763 52.0618 83.2691C51.8977 83.5261 51.5695 83.5904 51.307 83.4297C51.0444 83.2691 50.9788 82.9478 51.1429 82.6908C51.307 82.4659 51.6023 82.3695 51.8649 82.5301L52.5541 81.759C52.39 81.5984 52.2587 81.4377 52.1274 81.245L49.4363 83.5582C49.5348 83.7189 49.5347 83.9116 49.4035 84.1044C49.2394 84.3293 48.9112 84.3936 48.6815 84.2651C48.4517 84.1044 48.3861 83.7831 48.5174 83.5582C48.6815 83.3333 48.944 83.2691 49.2066 83.3976L52.0618 81.1807C51.7336 80.6667 51.471 80.0884 51.3726 79.4779L50.9131 79.6064V79.6386C50.8803 79.8313 50.6834 79.9598 50.4865 79.9277C50.2896 79.8956 50.1583 79.7028 50.1911 79.51C50.2239 79.3173 50.4208 79.1888 50.6178 79.2209C50.749 79.253 50.8147 79.3173 50.8803 79.4136L51.3398 79.3173C51.3069 79.1566 51.307 78.996 51.307 78.8032L47.3687 79.3815C47.3031 79.5422 47.1718 79.6385 46.9749 79.6064C46.778 79.5743 46.6795 79.4137 46.7124 79.2209C46.7452 79.0281 46.9093 78.9317 47.1062 78.9639C47.2046 78.996 47.2703 79.0281 47.3031 79.0924L51.2741 78.6747V78.6426C51.2741 78.3855 51.3069 78.1285 51.3398 77.9036L48.9768 77.9357C48.9112 78.2249 48.6486 78.3855 48.3533 78.3534C48.0579 78.2892 47.861 78.0321 47.9266 77.743C47.9923 77.4538 48.2548 77.261 48.5502 77.3253C48.7799 77.3574 48.944 77.5181 48.9768 77.743L51.3398 77.8394C51.3726 77.6466 51.4054 77.4859 51.471 77.2932L47.0077 76.747C46.9093 76.9398 46.6795 77.0683 46.4498 77.0361C46.1873 76.9719 46.0232 76.747 46.056 76.49C46.1216 76.2329 46.3514 76.0723 46.6139 76.1044C46.8436 76.1365 47.0077 76.3293 47.0077 76.5542L51.4382 77.2289C51.5039 77.004 51.6023 76.7791 51.7008 76.5863L50.5849 76.2972C50.4537 76.49 50.2568 76.5863 50.027 76.5542C49.7317 76.49 49.5348 76.2008 49.6004 75.9116C49.666 75.6225 49.9614 75.4297 50.2568 75.494C50.5521 75.5582 50.7162 75.8153 50.6834 76.0723L51.7664 76.4578C51.8649 76.2651 51.9961 76.0723 52.1274 75.9116L48.7471 74.3052C48.6158 74.4659 48.4517 74.5301 48.222 74.498C47.9266 74.4337 47.7625 74.1767 47.7954 73.8875C47.861 73.5984 48.1236 73.4377 48.4189 73.4699C48.6815 73.5341 48.8456 73.759 48.8456 74.0161L52.1602 75.8474C52.5541 75.3333 53.0792 74.9157 53.6699 74.5944L53.4073 73.9197H53.3745C53.1776 73.8876 53.0135 73.7269 53.0463 73.5341C53.0792 73.3414 53.2432 73.1807 53.4402 73.2128C53.6371 73.245 53.8012 73.4056 53.7683 73.5984C53.7683 73.7269 53.7027 73.8233 53.6042 73.8554L53.8012 74.498C53.9652 74.4337 54.0965 74.3695 54.2606 74.3052L53.2761 70.4177C53.112 70.3855 53.0135 70.2249 53.0135 70.0643C53.0463 69.8715 53.2104 69.743 53.3745 69.7751C53.5714 69.8072 53.7027 69.9679 53.6699 70.1285C53.6699 70.2249 53.6042 70.2892 53.5386 70.3534L54.3263 74.2731C54.5888 74.1767 54.8185 74.1125 55.0811 74.0803L54.8514 71.8634C54.556 71.8313 54.3591 71.5743 54.3919 71.2851C54.4247 70.996 54.6873 70.7711 54.9826 70.8032C55.278 70.8353 55.5077 71.0924 55.4749 71.3815C55.4421 71.6064 55.3108 71.7671 55.1139 71.8313L55.2452 74.0482C55.4421 74.0161 55.639 74.0161 55.8031 74.0161L55.9344 69.8715C55.7046 69.8072 55.5734 69.5823 55.6062 69.3574C55.639 69.1004 55.8687 68.9076 56.1313 68.9398C56.3938 68.9719 56.5907 69.1968 56.5579 69.4538C56.5251 69.6787 56.361 69.8394 56.1313 69.8715L55.8687 74.0161C56.1313 74.0161 56.361 74.0482 56.6236 74.0803L56.7548 73.3735C56.5579 73.2771 56.4266 73.0843 56.4595 72.8273C56.4923 72.5381 56.7548 72.3132 57.0502 72.3454C57.3456 72.3775 57.5753 72.6345 57.5425 72.9237C57.5097 73.2129 57.2799 73.4056 56.9846 73.4056L56.8205 74.0803C57.0502 74.1125 57.2799 74.1767 57.5097 74.2731L58.6255 71.3815C58.4614 71.2851 58.3629 71.0924 58.3958 70.8996C58.4286 70.6104 58.6911 70.4177 58.9865 70.4498C59.2819 70.4819 59.4788 70.739 59.4459 71.0281C59.4131 71.2851 59.1834 71.4779 58.9208 71.4779L57.6081 74.3373C58.1988 74.5622 58.7568 74.9157 59.1834 75.3655L59.3803 75.1727V75.1406C59.3147 74.9478 59.4131 74.755 59.61 74.6908C59.807 74.6265 60.0039 74.7229 60.0695 74.9157C60.1351 75.1084 60.0367 75.3012 59.8398 75.3655C59.7413 75.3976 59.61 75.3655 59.5116 75.3333L59.3147 75.494C59.4459 75.6225 59.5444 75.751 59.6429 75.8795L62.5637 73.6626C62.5309 73.502 62.6293 73.3414 62.7934 73.2771C62.9575 73.2129 63.1544 73.3092 63.2201 73.502C63.2857 73.6626 63.1873 73.8554 62.9903 73.9197C62.8919 73.9518 62.8263 73.9518 62.7278 73.8875L59.6757 75.9759C59.8398 76.2008 59.971 76.4257 60.1023 76.6506L61.8417 75.6867C61.7432 75.3976 61.9073 75.1084 62.2027 75.0442C62.4981 74.9478 62.7934 75.1084 62.8919 75.3976C62.9904 75.6867 62.8263 75.9759 62.5309 76.0723C62.334 76.1365 62.1042 76.0723 61.973 75.9116L60.168 76.8112C60.2336 76.9719 60.332 77.1647 60.3649 77.3574L64.139 75.8795C64.1062 75.6546 64.2374 75.4297 64.4672 75.3655C64.7297 75.2691 64.9923 75.4297 65.0907 75.6867C65.3861 75.751 65.222 76.008 64.9923 76.1044Z" fill="#F6F3EE"/>
</svg>
